<svg fill="#000000" width="50px" height="50px" viewBox="0 0 1.5 1.5" xmlns="http://www.w3.org/2000/svg" data-name="Layer 1"><path d="M1.375 0.362a0.531 0.531 0 0 1 -0.147 0.04 0.258 0.258 0 0 0 0.113 -0.142 0.512 0.512 0 0 1 -0.163 0.063 0.256 0.256 0 0 0 -0.438 0.234 0.728 0.728 0 0 1 -0.528 -0.268 0.26 0.26 0 0 0 -0.034 0.129 0.256 0.256 0 0 0 0.114 0.213 0.253 0.253 0 0 1 -0.116 -0.032v0.003a0.256 0.256 0 0 0 0.206 0.25 0.25 0.25 0 0 1 -0.069 0.011 0.313 0.313 0 0 1 -0.048 -0.004 0.257 0.257 0 0 0 0.239 0.177A0.514 0.514 0 0 1 0.188 1.146a0.5 0.5 0 0 1 -0.063 -0.004 0.723 0.723 0 0 0 0.393 0.116A0.724 0.724 0 0 0 1.25 0.528v-0.033a0.525 0.525 0 0 0 0.125 -0.133"/></svg>