<svg fill="#000000" width="50px" height="50px" viewBox="0 0 1.5 1.5" id="facebook" data-name="Flat Color" xmlns="http://www.w3.org/2000/svg" class="icon flat-color"><path id="primary" d="M0.875 0.375h0.188a0.063 0.063 0 0 0 0.063 -0.063V0.188a0.063 0.063 0 0 0 -0.063 -0.063h-0.188a0.313 0.313 0 0 0 -0.313 0.313v0.188H0.438a0.063 0.063 0 0 0 -0.063 0.063v0.125a0.063 0.063 0 0 0 0.063 0.063h0.125v0.438a0.063 0.063 0 0 0 0.063 0.063h0.125a0.063 0.063 0 0 0 0.063 -0.063v-0.438h0.139a0.063 0.063 0 0 0 0.063 -0.048l0.031 -0.125a0.063 0.063 0 0 0 -0.063 -0.077H0.813V0.438a0.063 0.063 0 0 1 0.063 -0.063" style="fill: rgb(0, 0, 0);"/></svg>