<svg version="1.1" id="Capa_1" xmlns="http://www.w3.org/2000/svg" xmlns:xlink="http://www.w3.org/1999/xlink" x="0px" y="0px" viewBox="0 0 32 32" style="enable-background:new 0 0 300.167 300.167;" xml:space="preserve" width="32" height="32"><g><path d="M26.8 16.792a2.8 2.8 0 0 1 -0.37 -0.54 9.42 9.42 0 0 1 -9.408 9.318c-5.188 0 -9.41 -4.222 -9.41 -9.41s4.222 -9.41 9.41 -9.41a9.428 9.428 0 0 1 9.172 7.3l0.852 -6.334 0.02 -0.142a13.192 13.192 0 0 0 -18.322 -1.71v3.048a5.18 5.18 0 0 1 -2.398 4.364v10.668a13.204 13.204 0 0 0 21.712 -0.512V17.62a2.8 2.8 0 0 1 -1.256 -0.828"/><path d="M17.022 8.35c-4.306 0 -7.81 3.504 -7.81 7.81s3.504 7.81 7.81 7.81 7.81 -3.504 7.81 -7.81 -3.504 -7.81 -7.81 -7.81"/><path d="M31.964 1.544a1.232 1.232 0 0 0 -1.232 -1.232 1.232 1.232 0 0 0 -1.222 1.068l-1.8 13.384a1.232 1.232 0 0 0 1.222 1.396h0.724v14.356a1.172 1.172 0 0 0 2.344 0z"/><path d="M7.142 1.804a0.8 0.8 0 1 0 -1.6 0v4.424h-1.172V1.804a0.8 0.8 0 1 0 -1.6 0v4.424H1.6V1.804a0.8 0.8 0 1 0 -1.6 0v7.214c0 1.558 1.004 2.886 2.398 3.372v18.126a1.172 1.172 0 0 0 2.344 0V12.39a3.58 3.58 0 0 0 2.4 -3.372z"/></g></svg>