<svg fill="#000000" width="50px" height="50px" viewBox="0 0 1.5 1.5" xmlns="http://www.w3.org/2000/svg" data-name="Layer 1"><path d="M1.084 0.341a0.075 0.075 0 1 0 0.075 0.075 0.075 0.075 0 0 0 -0.075 -0.075m0.287 0.151a0.475 0.475 0 0 0 -0.029 -0.152 0.306 0.306 0 0 0 -0.072 -0.111 0.294 0.294 0 0 0 -0.111 -0.072 0.456 0.456 0 0 0 -0.152 -0.029C0.941 0.125 0.92 0.125 0.75 0.125s-0.191 0 -0.258 0.004a0.456 0.456 0 0 0 -0.152 0.029 0.3 0.3 0 0 0 -0.111 0.072 0.294 0.294 0 0 0 -0.072 0.111 0.456 0.456 0 0 0 -0.029 0.152C0.125 0.559 0.125 0.58 0.125 0.75s0 0.191 0.004 0.258a0.456 0.456 0 0 0 0.029 0.152 0.294 0.294 0 0 0 0.072 0.111 0.3 0.3 0 0 0 0.111 0.072 0.456 0.456 0 0 0 0.152 0.029C0.559 1.375 0.58 1.375 0.75 1.375s0.191 0 0.258 -0.004a0.456 0.456 0 0 0 0.152 -0.029 0.294 0.294 0 0 0 0.111 -0.072 0.303 0.303 0 0 0 0.072 -0.111 0.475 0.475 0 0 0 0.029 -0.152c0 -0.066 0.004 -0.087 0.004 -0.258s0 -0.191 -0.004 -0.258M1.259 1a0.35 0.35 0 0 1 -0.021 0.116 0.191 0.191 0 0 1 -0.047 0.072 0.2 0.2 0 0 1 -0.072 0.047 0.35 0.35 0 0 1 -0.116 0.021c-0.063 0.003 -0.086 0.004 -0.25 0.004s-0.188 0 -0.25 -0.004a0.356 0.356 0 0 1 -0.121 -0.019 0.206 0.206 0 0 1 -0.069 -0.047 0.188 0.188 0 0 1 -0.046 -0.072 0.344 0.344 0 0 1 -0.025 -0.119c0 -0.063 -0.004 -0.086 -0.004 -0.25s0 -0.188 0.004 -0.25a0.344 0.344 0 0 1 0.022 -0.119A0.188 0.188 0 0 1 0.313 0.313a0.194 0.194 0 0 1 0.069 -0.05A0.356 0.356 0 0 1 0.5 0.241c0.063 0 0.086 -0.004 0.25 -0.004s0.188 0 0.25 0.004a0.35 0.35 0 0 1 0.116 0.021 0.191 0.191 0 0 1 0.074 0.05 0.194 0.194 0 0 1 0.047 0.069 0.35 0.35 0 0 1 0.021 0.119c0.003 0.063 0.004 0.086 0.004 0.25s-0.001 0.188 -0.004 0.25M0.75 0.429A0.321 0.321 0 1 0 1.071 0.75 0.32 0.32 0 0 0 0.75 0.429m0 0.529A0.208 0.208 0 1 1 0.958 0.75 0.208 0.208 0 0 1 0.75 0.958"/></svg>