<svg fill="#000000" width="50px" height="50px" viewBox="0 0 1.5 1.5" xmlns="http://www.w3.org/2000/svg" data-name="Layer 1"><path d="M1.438 0.607a0.531 0.531 0 0 0 -0.057 -0.258 0.182 0.182 0 0 0 -0.107 -0.063A4.875 4.875 0 0 0 0.75 0.267a4.938 4.938 0 0 0 -0.521 0.019 0.179 0.179 0 0 0 -0.091 0.046c-0.056 0.052 -0.063 0.141 -0.069 0.216a3 3 0 0 0 0 0.405 0.6 0.6 0 0 0 0.019 0.125 0.196 0.196 0 0 0 0.044 0.085 0.179 0.179 0 0 0 0.093 0.049 2.813 2.813 0 0 0 0.406 0.021c0.219 0.003 0.411 0 0.637 -0.018a0.181 0.181 0 0 0 0.096 -0.049 0.156 0.156 0 0 0 0.038 -0.063 0.662 0.662 0 0 0 0.033 -0.212c0.003 -0.035 0.003 -0.246 0.003 -0.284M0.609 0.928V0.541l0.37 0.194c-0.104 0.058 -0.241 0.122 -0.37 0.193"/></svg>